Coordinates
version=1
nRows=17
nColumns=36
inDegrees=yes

Units are S.I. units (second, meters, Newtons, ...)
If the header above contains a line with 'inDegrees', this indicates whether rotational values are in degrees (yes) or radians (no).

endheader
time	pelvis_tilt	pelvis_list	pelvis_rotation	pelvis_tx	pelvis_ty	pelvis_tz	hip_flexion_r	hip_adduction_r	hip_rotation_r	knee_angle_r	knee_angle_r_beta	ankle_angle_r	subtalar_angle_r	mtp_angle_r	hip_flexion_l	hip_adduction_l	hip_rotation_l	knee_angle_l	knee_angle_l_beta	ankle_angle_l	subtalar_angle_l	mtp_angle_l	lumbar_extension	lumbar_bending	lumbar_rotation	arm_flex_r	arm_add_r	arm_rot_r	elbow_flex_r	pro_sup_r	arm_flex_l	arm_add_l	arm_rot_l	elbow_flex_l	pro_sup_l
     -0.64000000	     -4.08001022	     -4.04431927	     -2.71931247	     -0.83232959	      1.15063814	     -0.26771528	      1.60737017	     -0.49174849	    -12.24417842	     46.96498187	      0.81969357	    -21.85563544	    -11.24242430	     -7.49999986	     15.47441918	     -1.27427070	     -3.25311655	     13.56051493	      0.23667563	      6.70436627	     -6.68576520	     -7.49999986	    -14.73924540	    -20.47671349	     -6.65631348	     -4.84939606	     -3.08648542	     -0.90656369	     33.11121529	     94.30295465	      2.62054850	    -10.99881258	    -28.21601831	     32.32426810	     94.35794366
     -0.63000000	     -3.84994157	     -4.41509640	     -2.47055836	     -0.82360338	      1.15179820	     -0.26987031	      2.22920341	     -0.50178789	    -12.23371999	     47.36473157	      0.82667052	    -21.45702036	    -11.62104529	     -7.49999986	     14.41830948	     -1.50993743	     -3.12306660	     12.99711568	      0.22684246	      7.10093163	     -6.59100735	     -7.49999986	    -15.18711423	    -19.97632682	     -6.71848318	     -4.69445374	     -3.27828210	     -0.98287836	     33.32782143	     93.63076964	      3.09066205	    -10.91798889	    -27.74844487	     32.40279604	     93.64031689
     -0.62000000	     -3.60435072	     -4.84471397	     -2.18258776	     -0.81480258	      1.15226349	     -0.27187324	      2.94880035	     -0.43572555	    -12.16136351	     47.92333078	      0.83641991	    -20.97389589	    -12.06612657	     -7.49999986	     13.38306514	     -1.82096008	     -3.09547203	     12.44490102	      0.21720450	      7.45113481	     -6.45467327	     -7.49999986	    -15.61423911	    -19.38307840	     -6.79847506	     -4.55846270	     -3.49484027	     -1.15169421	     33.57261255	     93.20341593	      3.52477074	    -10.81529460	    -27.40660828	     32.47405835	     93.14417420
     -0.61000000	     -3.55430278	     -5.30477192	     -1.88276123	     -0.80574292	      1.15176324	     -0.27371053	      4.04761197	     -0.33392394	    -12.04018004	     48.70326767	      0.85003238	    -20.49686530	    -12.45705062	     -7.49999986	     12.63401296	     -2.17570406	     -3.07148541	     11.98873604	      0.20924292	      7.77313080	     -6.42053454	     -7.49999986	    -15.73151698	    -18.75112875	     -6.97513172	     -4.45276827	     -3.68667514	     -1.26001764	     33.71477998	     92.95716300	      3.75515361	    -10.66963001	    -27.39259426	     32.68224663	     92.92037933
     -0.60000000	     -3.39031144	     -5.77869528	     -1.56610747	     -0.79659906	      1.15119261	     -0.27541859	      5.15982694	     -0.17510243	    -11.80485698	     49.55576199	      0.86491121	    -20.19126844	    -12.91736763	     -7.49999986	     11.79844729	     -2.55415659	     -3.12234804	     11.55559647	      0.20168321	      8.03709315	     -6.41669452	     -7.49999986	    -15.98540188	    -18.08653249	     -7.14750786	     -4.29381424	     -3.87062508	     -1.38455211	     33.83862332	     92.74438369	      4.01918125	    -10.53850390	    -27.37832166	     32.84898731	     92.73553675
     -0.59000000	     -3.25570862	     -6.23599061	     -1.22321265	     -0.78731406	      1.15083353	     -0.27713175	      6.37475412	     -0.00049983	    -11.56327326	     50.34107725	      0.87861755	    -20.01242046	    -13.24748972	     -7.49999986	     11.04010266	     -2.92110228	     -3.18301194	     11.18138169	      0.19515193	      8.26084341	     -6.42994849	     -7.49999986	    -16.17336460	    -17.39328950	     -7.32885578	     -4.20445570	     -4.04055771	     -1.49765546	     33.98671489	     92.48849292	      4.25965074	    -10.41973474	    -27.35382484	     33.07597503	     92.50715483
     -0.58000000	     -2.94657726	     -6.66774867	     -0.98352174	     -0.77815023	      1.15148566	     -0.27854989	      7.39057537	      0.24849289	    -11.21234009	     50.84653619	      0.88743947	    -20.28848898	    -13.97509894	     -7.49999986	     10.10097490	     -3.30801079	     -3.41360000	     10.84834502	      0.18933934	      8.30439583	     -6.49751010	     -7.49999986	    -16.50075546	    -16.80064783	     -7.42843728	     -3.97813035	     -4.10146207	     -1.75637092	     33.96548109	     92.55483708	      4.61119863	    -10.38288444	    -27.37866217	     33.15397417	     92.63407121
     -0.57000000	     -2.98234773	     -6.98475257	     -0.70922646	     -0.76874488	      1.15243458	     -0.28008054	      8.67582537	      0.40040854	    -11.06119531	     51.08107704	      0.89153298	    -20.10835640	    -13.99987259	     -7.49999986	      9.55726700	     -3.56566823	     -3.45528023	     10.57411509	      0.18455312	      8.44262356	     -6.46831627	     -7.49999986	    -16.39701121	    -16.26443396	     -7.57820484	     -4.02420456	     -4.20691366	     -1.84918918	     34.22227717	     92.17349411	      4.69175534	    -10.30228167	    -27.34651434	     33.50718413	     92.27713010
     -0.56000000	     -2.89302913	     -7.26062355	     -0.56122146	     -0.75943272	      1.15448835	     -0.28114340	      9.61448119	      0.66602327	    -10.85599053	     50.79701284	      0.88657512	    -20.22396765	    -14.36742183	     -7.49999986	      8.81628122	     -3.83413787	     -3.69323166	     10.25035405	      0.17890243	      8.31125750	     -6.43523494	     -7.49999986	    -16.32073978	    -15.82851327	     -7.71336894	     -3.91957456	     -4.19992354	     -1.98030021	     34.17974476	     92.04806148	      4.78713537	    -10.34465126	    -27.32341536	     33.63167876	     92.18734343
     -0.55000000	     -2.79217582	     -7.45222468	     -0.40947625	     -0.75025717	      1.15698221	     -0.28207512	     10.31341700	      0.90624835	    -10.84461719	     50.11716645	      0.87470957	    -20.28762608	    -14.78090657	     -7.49999986	      8.05094035	     -4.01964133	     -3.82214704	      9.93752090	      0.17344246	      8.23418820	     -6.33076537	     -7.49999986	    -16.21967588	    -15.45807128	     -7.79422900	     -3.80608238	     -4.17373652	     -2.06648173	     33.99654236	     92.20544426	      4.93128562	    -10.39233901	    -27.29303698	     33.68839830	     92.37096509
     -0.54000000	     -2.52644984	     -7.68404144	     -0.24569714	     -0.74138114	      1.15967665	     -0.28281705	     10.57539374	      1.28449082	    -10.99946358	     49.00367683	      0.85527551	    -20.54957992	    -15.56331633	     -7.49999986	      7.12024150	     -4.27501384	     -3.93539705	      9.67497854	      0.16886023	      8.33123940	     -5.99263654	     -7.49999986	    -16.33824958	    -15.03637153	     -7.86858962	     -3.52119309	     -4.07037930	     -2.33115939	     33.58770247	     91.84787208	      5.04475113	    -10.48378129	    -26.93870731	     33.95856842	     91.96969056
     -0.53000000	     -2.31727671	     -7.73421723	     -0.22984709	     -0.73261051	      1.16165546	     -0.28318804	     10.77468795	      1.50364992	    -11.21860034	     47.81436582	      0.83451811	    -20.28713430	    -16.26448197	     -7.49999986	      6.18863144	     -4.39491562	     -4.61565769	      9.35625447	      0.16329745	      8.70688352	     -4.69295726	     -7.49999986	    -16.33720834	    -14.84099283	     -7.93169849	     -3.39732559	     -4.06951938	     -2.14607553	     33.59913284	     92.75213108	      4.95305378	    -10.60181763	    -26.83872831	     34.47152424	     92.59818798
     -0.52000000	     -2.13048996	     -7.79909305	     -0.16128013	     -0.72420021	      1.16270571	     -0.28371883	     10.91898699	      1.74931791	    -11.59698342	     46.58996348	      0.81314826	    -19.57761451	    -17.04521791	     -7.49999987	      5.32150585	     -4.47473241	     -4.65764839	      9.04514326	      0.15786753	      8.75912122	     -4.24463560	     -7.49999987	    -16.27960178	    -14.59086709	     -7.80361894	     -3.38425931	     -3.87142540	     -3.18223059	     33.63336888	     95.18483817	      5.06488487	    -10.48809776	    -27.54772426	     34.94248836	     95.19415121
     -0.51000000	     -1.96244067	     -7.77273897	     -0.10425498	     -0.71590115	      1.16291850	     -0.28422618	     11.06910510	      1.89354498	    -12.06071938	     45.43167183	      0.79293226	    -18.69869688	    -17.96453558	     -7.49999987	      4.52282441	     -4.47185363	     -4.84473067	      8.81112158	      0.15378308	      9.10653409	     -3.42505760	     -7.49999987	    -16.21589473	    -14.43112562	     -7.73885663	     -3.25013118	     -3.86971838	     -2.80192719	     33.47317480	     94.03789805	      5.09337143	    -10.64216941	    -26.88667965	     35.30052478	     93.94660056
     -0.50000000	     -1.81197696	     -7.71622437	     -0.07051942	     -0.70760645	      1.16253491	     -0.28464548	     11.29365288	      2.01555632	    -12.51044942	     44.41889583	      0.77525598	    -17.33301146	    -18.95586854	     -7.49999987	      3.78661489	     -4.43873670	     -5.01400569	      8.62916862	      0.15060740	      9.46078997	     -2.64393194	     -7.49999987	    -16.11653082	    -14.30242346	     -7.57198929	     -3.23030601	     -3.82377203	     -2.71831528	     33.42366635	     93.36200576	      5.14454390	    -10.73671784	    -26.40807840	     35.73550423	     93.15699372
     -0.49000000	     -1.73820874	     -7.61972851	     -0.06861777	     -0.69912213	      1.16187984	     -0.28487809	     11.68791621	      2.10110593	    -12.89976015	     43.56764086	      0.76039878	    -15.68197057	    -20.00034999	     -7.49999987	      3.17732865	     -4.36709403	     -5.21767411	      8.51709562	      0.14865136	      9.82332050	     -1.90744974	     -7.49999987	    -15.93815499	    -14.23397358	     -7.34874938	     -3.28548423	     -3.72329263	     -3.02092522	     33.38855738	     93.61505513	      5.20756276	    -10.80381526	    -26.15064696	     36.17594873	     93.29417964
     -0.48000000	     -1.59557943	     -7.52002463	     -0.01284213	     -0.69041835	      1.16145383	     -0.28504520	     12.09539208	      2.16465393	    -13.32101828	     42.85228675	      0.74791350	    -13.76628028	    -20.88416378	     -7.49999987	      2.52414109	     -4.29186402	     -5.36521513	      8.43295096	      0.14718276	     10.22139164	     -1.20072779	     -7.49999987	    -15.90761316	    -14.12988921	     -7.17918085	     -3.35584650	     -3.65588433	     -3.05361758	     33.46372818	     93.10211941	      5.27851088	    -10.90989032	    -25.66196031	     36.64716126	     92.67361844
